<svg width="148" height="148" viewBox="0 0 148 148" fill="none" xmlns="http://www.w3.org/2000/svg">
<path id="Vector" d="M54.2667 69.0667H93.7333V59.2H54.2667V69.0667ZM98.6667 74V103.6H108.533V74H98.6667ZM93.7333 108.533H54.2667V118.4H93.7333V108.533ZM49.3333 103.6V74H39.4667V103.6H49.3333ZM54.2667 108.533C52.9583 108.533 51.7035 108.014 50.7783 107.088C49.8531 106.163 49.3333 104.908 49.3333 103.6H39.4667C39.4667 107.525 41.0259 111.29 43.8015 114.065C46.577 116.841 50.3415 118.4 54.2667 118.4V108.533ZM98.6667 103.6C98.6667 104.908 98.1469 106.163 97.2217 107.088C96.2966 108.014 95.0417 108.533 93.7333 108.533V118.4C97.6585 118.4 101.423 116.841 104.199 114.065C106.974 111.29 108.533 107.525 108.533 103.6H98.6667ZM93.7333 69.0667C95.0417 69.0667 96.2966 69.5864 97.2217 70.5116C98.1469 71.4368 98.6667 72.6916 98.6667 74H108.533C108.533 70.0748 106.974 66.3104 104.199 63.5348C101.423 60.7593 97.6585 59.2 93.7333 59.2V69.0667ZM54.2667 59.2C50.3415 59.2 46.577 60.7593 43.8015 63.5348C41.0259 66.3104 39.4667 70.0748 39.4667 74H49.3333C49.3333 72.6916 49.8531 71.4368 50.7783 70.5116C51.7035 69.5864 52.9583 69.0667 54.2667 69.0667V59.2ZM59.2 64.1333V54.2667H49.3333V64.1333H59.2ZM88.8 54.2667V64.1333H98.6667V54.2667H88.8ZM74 39.4667C77.9252 39.4667 81.6896 41.0259 84.4652 43.8015C87.2407 46.577 88.8 50.3415 88.8 54.2667H98.6667C98.6667 47.7247 96.0679 41.4506 91.442 36.8247C86.8161 32.1988 80.542 29.6 74 29.6V39.4667ZM59.2 54.2667C59.2 50.3415 60.7593 46.577 63.5348 43.8015C66.3104 41.0259 70.0748 39.4667 74 39.4667V29.6C67.458 29.6 61.1839 32.1988 56.558 36.8247C51.9321 41.4506 49.3333 47.7247 49.3333 54.2667H59.2ZM9.86667 74C9.86667 56.9908 16.6236 40.6782 28.6509 28.6509C40.6782 16.6236 56.9908 9.86667 74 9.86667V0C54.374 0 35.5518 7.79641 21.6741 21.6741C7.79641 35.5518 0 54.374 0 74H9.86667ZM74 138.133C56.9908 138.133 40.6782 131.376 28.6509 119.349C16.6236 107.322 9.86667 91.0092 9.86667 74H0C0 93.626 7.79641 112.448 21.6741 126.326C35.5518 140.204 54.374 148 74 148V138.133ZM138.133 74C138.133 82.4221 136.474 90.7617 133.251 98.5428C130.028 106.324 125.304 113.394 119.349 119.349C113.394 125.304 106.324 130.028 98.5428 133.251C90.7617 136.474 82.4221 138.133 74 138.133V148C93.626 148 112.448 140.204 126.326 126.326C140.204 112.448 148 93.626 148 74H138.133ZM148 74C148 54.374 140.204 35.5518 126.326 21.6741C112.448 7.79641 93.626 0 74 0V9.86667C82.4221 9.86667 90.7617 11.5255 98.5428 14.7485C106.324 17.9715 113.394 22.6956 119.349 28.6509C125.304 34.6062 130.028 41.6762 133.251 49.4572C136.474 57.2383 138.133 65.5779 138.133 74H148Z" fill="#A8A8A8"/>
</svg>
